# xmcd
#
# Track frame offsets: 
#        150
#        37005
#        61350
#        89370
#        122003
#        154709
#        189901
#        223229
#        257030
#
# Disc length: 3793 seconds
#
# Revision: 0
# Processed by: cddbd v1.5.2PL0 Copyright (c) Steve Scherf et al.
# Submitted via: ExactAudioCopy v0.99pb5
#
DISCID=7c0ecf09
DTITLE=Various Artist - Remixed SuSU 2 [CD 2)
DYEAR=2006
DGENRE=House
TTITLE0=K-Klass - Dance With Me (Mauve Dub)
TTITLE1=Solitaire - You Got The Love (Soul Seekerz Dub)
TTITLE2=Morris T and Fjrmo - Let Me Be (Problem Kid Dub)
TTITLE3=Starbeach - Get Naked (Alliance DC Naked Dub)
TTITLE4=Matthias Heilbronn - I Made It (Matty's Soulflower Dub)
TTITLE5=The Reese Project - This Means That (Instrumental Dub)
TTITLE6=Rosie Gaines - Close Than Close (Candy Apple Dub Mix)
TTITLE7=Souledz - You Can't Hide Your Love (Dub)
TTITLE8=Afro Angel - Magic (Extended Club Dub Mix)
EXTD=
EXTT0=
EXTT1=
EXTT2=
EXTT3=
EXTT4=
EXTT5=
EXTT6=
EXTT7=
EXTT8=
PLAYORDER=
